<?xml version="1.0" encoding="utf-8"?>
<!-- Generator: Adobe Illustrator 24.1.2, SVG Export Plug-In . SVG Version: 6.00 Build 0)  -->
<svg version="1.1" id="Layer_1" xmlns="http://www.w3.org/2000/svg" xmlns:xlink="http://www.w3.org/1999/xlink" x="0px" y="0px"
	 viewBox="0 0 80 80" style="enable-background:new 0 0 80 80;" xml:space="preserve">
<style type="text/css">
	.st0{fill:#ff4500;}
</style>
<g transform="translate(0.000000,80.000000) scale(0.100000,-0.100000)">
	<path class="st0" d="M130,685l-44-45l119-120l120-120L205,280L85,160l48-47l47-48l120,120l120,120l120-120L660,65l47,48l48,47
		L635,280L515,400l120,120l120,120l-48,47l-47,48L540,615L420,495L302,613c-64,64-120,117-123,117C177,730,154,710,130,685z
		 M543,588l122,122l33-32l32-33L608,523L485,400l123-123l122-122l-32-33l-33-32L543,212L420,335L297,212L175,90l-33,32l-32,33
		l122,122l123,123L232,523L110,645l32,33l33,32l122-122l123-123L543,588z"/>
</g>
</svg>
